<?xml version="1.0" encoding="UTF-8"?>
<svg id="Foxxo" xmlns="http://www.w3.org/2000/svg" viewBox="0 0 316.1838 482.6739">
  <defs>
    <style>
      .cls-1 {
        fill: #fff;
      }
    </style>
  </defs>
  <g id="backgound_face" data-name="backgound face">
    <path class="cls-1" d="m14.5618,204.9021c-2.2017,4.419-4.7064,8.6653-7.3458,12.835-1.7354,2.7416-3.6435,5.4357-5.0948,8.3447-1.0405,2.0858-2.0392,4.6846-.6628,6.8732.9593,1.5254,2.6943,2.1753,4.4317,2.2594,1.0877.0526,2.1697-.1403,3.2499-.2332.8263-.0711,2.3138-.3158,2.9098.103l-1.0763-1.0763-.0303-.1772v-1.595l-.0695.2904.7715-1.3238c-1.2786,1.5051-3.1302,2.6818-4.5867,4.0296-1.5352,1.4206-3.0154,2.9082-4.3181,4.5474-2.3956,3.0143-4.3686,7.1792-.7557,10.1605,1.5751,1.2998,3.5714,1.9001,5.5309,2.354.7753.1796,1.5577.3322,2.3276.5342.3061.0803.6108.1647.91.2681.6082.2101-.0583.0097-.0837-.0361.211.3798-.1784-.2055-.2791-.3327-.3804-.4804-.3912-1.0745-.4146-1.6427-.0187-.4559.007-.2787-.0226-.076.0125-.0858.2903-.4897-.0373.0055-.3806.5756-.7361,1.1608-1.1391,1.7231-.8611,1.2015-1.779,2.3652-2.5823,3.6073-1.7665,2.7318-2.6277,7.0424,1.5633,8.0467.2834.0679,1.3068.1928.7362.0999-.4178-.068.1109.0192.2094.0402.2925.0625.5859.1165.8767.1875.7589.1855,1.5035.4279,2.2347.702.9983.3742,2.578,1.1444,3.9413,1.9048,6.4088,3.5745,11.9954,8.2279,17.4367,13.1109,3.2529,2.9191,6.3545,5.9671,9.4007,9.0964,7.327,7.5268,15.4355,14.2959,24.0631,20.2832,17.5028,12.1464,37.4383,21.085,58.2549,25.6974,10.5055,2.3278,21.0593,3.2825,31.793,3.5675,8.4865.2254,16.9075-.2234,25.3037-1.5137,18.0046-2.7669,35.2114-9.4564,51.0555-18.3353,18.6972-10.4778,35.8593-23.8988,51.5518-38.4444,4.2534-3.9425,8.6803-7.7072,13.3632-11.0128,1.5836-1.1179,3.2033-2.189,4.881-3.1611.7253-.4203,1.4616-.8221,2.2126-1.1947.3758-.1865.7548-.3666,1.1387-.5359.3222-.1421.0387-.0179-.0232.0075.267-.1095.538-.2124.8102-.3085,1.5331-.5413,3.2311-.6647,4.147-2.2209.8579-1.4576.474-3.1262-.3239-4.5061-.7287-1.2604-1.7611-2.3767-2.707-3.4768-.4381-.5095-.8805-1.0156-1.3091-1.5332-.1086-.1312-.2157-.2637-.3236-.3955-.2853-.3488.2759.381.0228.0342-.191-.2617-.3727-.5268-.5504-.7976-.1805-.275-.1279-.5877-.1707-.2637-.0174.1318.169.6679.0245,1.2055.0768-.2857-.65,1.4161-1.0558,1.3924.1456.0085.7168-.3595.9037-.4458.6009-.2775,1.2185-.5102,1.8385-.7413,2.108-.7859,4.4197-1.4194,6.2459-2.7748,6.5738-4.879-1.8092-12.4161-5.3358-16.1887-.4307-.4608-.8456-.9337-1.2658-1.4037-.0889-.0995-.1712-.2067-.2558-.3096-.0119-.0144.3584.5095.1925.2477-.0922-.1455-.2375-.4576-.3668-.5663-.1137-.0957-.2195-1.002.1671.4043-.1523-.554.3392.3537-.027,1.2674-.1175.2931-1.8201,2.496-2.2727,1.887.1618.2177,2.4065.0384,2.8185.0487,3.2059.0804,7.7389.2293,7.9952-4.0572.1633-2.7314-1.5615-5.4834-2.9033-7.738-1.9403-3.2605-4.1199-6.3757-6.2292-9.5273-2.0022-2.9915-4.0367-5.9993-5.6564-9.2207-1.7348-3.4504-6.9125-.4159-5.1808,3.0283,3.5604,7.0814,8.8238,13.1523,12.6517,20.0778.3479.6294.6696,1.2691.977,1.9189.2195.4641-.0999-.4303.1244.3293.0794.2689.1477.5631.2442.8251.2356.6395-.0096-.6105-.0061-.0218.0022.359.097-.4066.1372-.4945.2936-.6427.4455-.7322,1.0511-1.0576.4458-.2396.196-.1135.0582-.0524.329-.1459.5935-.0461-.1285-.0389-1.9478.0195-3.9441-.124-5.8866-.0217-1.9395.1021-3.6982,1.3147-3.6967,3.4288.0019,2.7291,3.0346,5.0929,4.739,6.898,1.005,1.0643,2.3703,2.5468,3.0551,3.435.1371.1778.7484,1.0512,1.0282,1.5422.0612.1075.4632.9504.3094.5661-.14-.3498.1166.4494.1551.6074-.1809-.7438-.0347-.4736-.0513-.2589-.0392.508.0504-.2623.0579-.294-.1115.4691.1297-.2196.1388-.2524-.1704.6119-.167.1121-.0434.0738.2251-.0699-.5741.3687-.7931.4831-.5222.2727-1.0671.4766-1.6179.6828-1.2198.4565-2.45.8818-3.6544,1.3787-1.1061.4564-2.4673.8853-3.3331,1.7569-2.8125,2.8314.6308,6.5,2.4915,8.6636.4664.5423.9376,1.0808,1.392,1.6333.1073.1305.2137.2617.3194.3935.2804.3498-.2767-.3866-.0312-.0383.1795.2548.3397.5467.5331.7892.453.5679-.0038-.2461.0531.0373-.0995-.4957.3788-1.7701,1.158-2.4775.4883-.4433.478-.2097-.1576-.0438-.4359.1138-.8661.2468-1.2908.397-3.6515,1.2919-6.9887,3.3736-10.1469,5.5826-5.2718,3.6874-10.2201,7.8526-14.94,12.219-16.4697,15.2361-34.5247,29.202-54.4115,39.7014-16.3932,8.655-34.2892,14.7072-52.7953,16.3576-9.5617.8527-19.3578.7104-28.9118-.1501-11.0833-.9981-22.0353-3.4054-32.6005-6.8795-21.0839-6.9328-40.812-18.3466-57.3181-33.1858-4.5621-4.1013-8.6923-8.6255-13.1442-12.8383-5.5184-5.2222-11.3299-10.229-17.6165-14.5094-3.1719-2.1597-6.5054-4.1083-10.1083-5.4589-.6904-.2588-1.3921-.4883-2.107-.6695-.3326-.0843-.667-.1578-1.0044-.22-.1623-.0299-.3254-.0542-.4884-.0793-.6173-.0952-1.1758-.4038-.554-.0755-.4754-.251.2639.14.2625.1388.4268.3637.864.7358,1.0059,1.292.1079.4229-.0662.656.0003,1.019-.0155-.0845.111-.2567.0852-.3374-.0731-.2291.0533-.1336-.0829.1583.0626-.1341.1267-.2729.1998-.4023.208-.3679.4188-.7314.6485-1.0866,1.4766-2.2835,4.5296-4.9831,4.5541-7.8944.0362-4.3184-5.4468-4.4882-8.4569-5.393-.0939-.0282-1.15-.4081-.8116-.2591-.0842-.0371-1.1016-.5789-.6583-.3045-.4943-.3061-.4241-.4514-.1092.1492-.2314-.4413-.0095.1365.022.2024-.1456-.3043-.1019.2742.0442-.102.0385-.0992.1995-.5084-.0111-.0255.0765-.1754.1738-.3588.2699-.5218.2207-.3743.4479-.7421.7001-1.0962.4779-.671,1.2002-1.472,1.8536-2.1644,1.5547-1.6475,3.237-3.1746,4.9592-4.6443.7175-.6123,1.5292-1.1721,2.1565-1.8743,1.3117-1.4683,1.1787-3.6911-.2027-5.0725-2.2068-2.2068-5.9769-1.3531-8.7286-1.1772-.2857.0183-.5784-.0015-.8615.024-.6912.0622.0847-.0783-.0371.0594.0693-.0783.1413.1814-.0671-.0384-.239-.2522.5301.4744.2998.2221-.0533-.0583.5519,1.1216.4253.6703-.0958-.3414.0633.7614.0606.3915-.0037-.4933-.0156.1045-.0627.2582.0705-.2299.1045-.4728.1762-.7042.0713-.2299.3539-.8753.0907-.2933.3377-.7467.7292-1.4671,1.1375-2.1772,1.0119-1.7596,2.1241-3.4614,3.2157-5.172,3.0104-4.7175,5.9109-9.4924,8.4085-14.5052,1.7168-3.4458-3.4568-6.4884-5.1808-3.0283h0Z"/>
  </g>
  <g id="face">
    <g id="_Right_eye" data-name="+Right eye">
      <ellipse id="_Right_Pupil" data-name="+Right Pupil" class="cls-1" cx="118.2996" cy="196.0001" rx="6.2325" ry="10.4162"/>
    </g>
    <g id="_left_eye" data-name="+left eye">
      <ellipse id="_Left_Pupil" data-name="+Left Pupil" class="cls-1" cx="197.7426" cy="196.0001" rx="6.2325" ry="10.4162"/>
    </g>
    <path id="nose" class="cls-1" d="m130.9402,239.4167v-3.5641c0-6.0116,4.8734-10.885,10.885-10.885h33.1817c6.0116,0,10.885,4.8734,10.885,10.885v2.738c0,3.2038-1.2198,6.2874-3.4116,8.6241l-10.0139,10.6761c-7.387,8.455-20.4971,8.5699-28.0312.2458l-9.8043-9.8075c-2.3632-2.364-3.6907-5.5697-3.6907-8.9123Z"/>
  </g>
  <g id="_left_ear" data-name="+left ear">
    <g>
      <path class="cls-1" d="m266.3614,112.9453c6.0062-2.0151,11.3277-6.2664,13.3542-12.4273.1276-.3879.2504-.7863.3186-1.1899.1022-.6047-.0186-1.1889-.5375-1.5767-.4554-.3403-1.1643-.4576-1.6659-.1173-1.044.7083-2.1501,1.3559-3.3145,1.7538-.4667.1595-.9437.2892-1.4283.381-.1131.0214-.2266.0404-.3403.0581.1365-.0213.1646-.0147.011-.0042-.199.0136-.3965.0341-.5961.0398-.3062.0087-.6057-.0214-.9106-.0323-.2997-.0108.2552.058.1031.0156-.0616-.0172-.1286-.0193-.1914-.0325-.1003-.021-.2006-.0407-.3-.0657-.151-.038-.2958-.0992-.4458-.1375-.2259-.0577.4203.1985.1747.073l.7429,1.2952c.0107-.2561.0259-.5119.048-.7673.0113-.1304.0242-.2606.0384-.3907.0072-.0657.0157-.1313.0228-.1971.0256-.2349-.0356.2378-.0013.0016.086-.5927.1955-1.1813.327-1.7655.2704-1.2017.6256-2.3836,1.0317-3.546.8754-2.5059,1.9023-4.7247,3.1748-7.1752,2.0861-4.0175,4.4836-7.8778,7.0644-11.5953.5298-.7632,1.0645-1.5245,1.623-2.2672.7559-1.0051-.5161-2.6845-1.694-2.2035-1.5627.6382-3.1668,1.1699-4.8128,1.5481-1.3227.3039-2.2525.4504-3.4969.5347-.805.0545-1.6151.0676-2.4206.0144-.2126-.014-.4243-.0454-.6366-.0585-.0673-.0042.4108.1455.1851.024-.0153-.0082-.0411-.0066-.0588-.0098l.6619,2.5071c2.1166-1.7069,3.4665-4.1869,4.4798-6.6627,1.1569-2.8266,1.8491-5.8324,2.3274-8.8419.9335-5.8738,1.2005-11.9283.7069-17.8587-.0984-1.1829-.2296-2.3689-.4406-3.5374-.1343-.7438-.3045-1.4946-.6572-2.1698-.4201-.8043-1.7484-1.0297-2.3559-.3036-.917,1.0963-1.9031,2.1399-2.907,3.1561-.9582.9699-1.9475,1.9098-2.9768,2.804-1.1631,1.0105-2.0382,1.7084-3.3361,2.5459-.6314.4075-1.2834.7855-1.962,1.1093-.0831.0397-.1669.078-.2506.1165-.0253.0116-.283.1218-.1324.0595.0916-.0379-.2835.1074-.3768.1405-.3365.1193-.6783.2176-1.0266.2959-.4748.1068-.9521.5638-1.0477,1.0477-.7256,3.6727-1.4512,7.3455-2.1768,11.0182-1.1518,5.8299-2.3035,11.6598-3.4553,17.4897-.2651,1.342-.5303,2.6841-.7954,4.0261-.1569.794.2261,1.6194,1.0477,1.8452.7373.2026,1.6874-.249,1.8452-1.0477.7256-3.6727,1.4512-7.3455,2.1768-11.0182,1.1518-5.8299,2.3035-11.6598,3.4553-17.4897.2651-1.342.5303-2.6841.7954-4.0261l-1.0477,1.0477c2.8734-.6461,5.41-2.5418,7.6347-4.3827,1.9957-1.6514,3.8465-3.482,5.5866-5.3992.3631-.4.7241-.8029,1.0708-1.2173l-2.3559-.3036c.1757.3364-.0742-.2532-.0232-.0677.0334.1215.0824.24.1178.3614.0886.3046.1562.6154.2168.9266.0775.3983.1295.7997.1958,1.1998-.0041-.0248-.0412-.3374.0007.0142.0137.1153.0282.2305.0415.3459.0299.2593.0571.519.0821.7788.245,2.5424.3068,5.1043.2665,7.6571-.0238,1.5062-.088,3.0118-.195,4.5144-.0553.7762-.1222,1.5516-.2016,2.3258-.0363.354-.0752.7077-.1169,1.0611-.0222.1886-.0453.3771-.0691.5655-.0119.0942-.0242.1883-.0364.2825-.0602.4665.0447-.2999-.0228.1654-.4323,2.9785-1.0258,5.9469-2.0428,8.7863-.128.3573-.2636.7116-.4053,1.0637-.031.0769-.0628.1536-.0946.2302.0798-.1921.0409-.0949-.0184.0386-.0741.167-.1483.3338-.2255.4994-.305.6539-.6421,1.2936-1.0201,1.9084-.1844.3001-.3784.5943-.5836.8806-.0422.0589-.0874.1163-.1282.176-.1584.2318.12-.1462.0056-.0038-.0999.1243-.1993.2487-.3028.37-.4206.4934-.883.9478-1.3878,1.3549-.8512.6865-.3929,2.3138.6619,2.5071,1.2216.2239,2.4946.2207,3.7283.1371,3.1373-.2125,6.2019-1.0034,9.1073-2.1899l-1.694-2.2035c-1.6066,2.1362-3.0886,4.3752-4.5143,6.6345-2.8628,4.5367-5.4888,9.2849-7.3628,14.3227-.9845,2.6465-1.7431,5.4251-1.8613,8.2597-.0208.4989.2946,1.0661.7429,1.2952.9324.4764,2.0516.6183,3.0842.589,2.6016-.0738,5.0611-1.1989,7.1824-2.6381l-2.2035-1.694c-.0495.2927-.1318.5819-.2167.8658-.1.3346-.2147.6647-.3405.9905-.0367.095-.0769.1887-.1131.2838-.086.226.1545-.3403-.0087.0172-.0985.2157-.1964.4313-.3019.6438-.2485.5006-.5229.9883-.8207,1.4612-.1509.2396-.3078.4755-.4705.7073-.0909.1295-.1841.2573-.278.3847-.048.0651-.097.1297-.1463.1938.1282-.1667.0543-.07-.0338.0375-.4645.5671-.9547,1.1099-1.4823,1.6191-.2597.2507-.5271.4935-.8013.7282-.3586.307-.5723.4745-.8339.6658-1.7526,1.281-3.6872,2.238-5.7297,2.9232-.7678.2576-1.2708,1.0333-1.0477,1.8452.206.7497,1.0738,1.3064,1.8452,1.0477h0Z"/>
      <path class="cls-1" d="m221.4065,52.9773c.2548-.3637.5174-.7213.7829-1.0772.466-.6248-.2158.2573.0725-.0947.1758-.2146.3455-.4344.5208-.6496.6981-.8569,1.4223-1.6925,2.162-2.5137,1.7205-1.9102,3.5248-3.7445,5.3682-5.536,4.324-4.2024,8.8683-8.1786,13.5143-12.02,2.4366-2.0146,4.9052-3.991,7.4065-5.9247-.3381.2614.3926-.3012.5407-.4147.3053-.2339.6111-.4671.9174-.6997.6457-.4904,1.2935-.9781,1.9434-1.4629,1.2351-.9212,2.4779-1.8321,3.7292-2.7311,4.3377-3.1163,8.7701-6.1358,13.4113-8.7857,1.7021-.9718,3.4561-1.7914,5.2079-2.6608-.9559.4744.2038-.0774.4878-.1826.3585-.1328.7205-.2574,1.0874-.365.2687-.0788.5398-.1408.8112-.2082.9567-.2377-.59-.0557.0996-.0265.1169.005.5451.0572.6359.0054-.0924.0527-.9628-.179-.458-.0472.5148.1344-.401-.187-.3966-.1845.1596.0897.3381.285-.085-.0964-.8132-.7333.4504.4112-.3407-.341-.4473-.4253-.1573-.2713-.1115-.1126.1822.6309.5735,1.2621.8439,1.8629,2.1094,4.6864,4.1583,9.4005,6.1231,14.1494,6.6179,15.9953,12.4408,32.367,16.7171,49.1523,1.6994,6.6706,3.1471,13.408,4.2581,20.2021.2543,1.5553.4909,3.1136.7084,4.6745.0258.1852.0512.3705.0766.5557-.0169-.1233-.0738-.5659.0041.0318.0477.3658.0954.7316.1415,1.0976.091.7221.1777,1.4447.2601,2.1678.3246,2.8479.5819,5.7036.7634,8.5643.3255,5.1302.4069,10.2774.1935,15.414-.0945,2.2755-.2468,4.5486-.4605,6.8161-.1031,1.0947-.2205,2.188-.3526,3.2796-.0314.2592-.0635.5184-.0965.7774-.0286.2243-.1476,1.0725-.0193.1647-.0715.506-.1403,1.0123-.2153,1.5178-1.0856,7.3212-2.8735,14.5145-5.2153,21.5326-1.8609,5.5767-4.0861,11.0146-6.1837,16.5036-1.7011,4.4515-3.3484,8.9961-4.0495,13.7301-.7164,4.838-.4974,9.7279,1.1752,14.3628.4809,1.3325,1.0466,2.6404,1.6795,3.9077.7237,1.4492,2.7719,1.8557,4.1046,1.0763,1.4757-.8632,1.8026-2.6499,1.0763-4.1046-.1029-.206-.9278-1.6013-.8156-1.7612-.0537.0765.3293.8211.0907.204-.0528-.1364-.108-.2719-.1604-.4085-.1097-.2861-.2147-.574-.3146-.8637-.3728-1.0804-.6758-2.1848-.8995-3.3056-.0526-.2634-.1008-.5276-.1447-.7925-.0218-.1316-.0397-.2639-.0621-.3953-.1186-.6964.0683.6777.0327.2548-.0471-.5582-.1204-1.1124-.1523-1.6724-.0616-1.0788-.0523-2.1612.0184-3.2394.0356-.5433.0925-1.0837.1521-1.6247.0931-.8444-.1212.7494.0128-.0922.0448-.2813.0874-.5627.1361-.8434.1937-1.1141.4399-2.2186.7229-3.3133.6116-2.3652,1.3929-4.6836,2.2298-6.9776,1.9712-5.4033,4.2082-10.705,6.1305-16.1271,2.401-6.7722,4.3443-13.6996,5.6179-20.775,1.6822-9.3451,2.3088-18.8535,2.0039-28.3403-.4022-12.5152-2.2983-24.98-5.0676-37.1791-3.7234-16.4021-9.0529-32.4181-15.2017-48.0601-1.8748-4.7693-3.8334-9.5052-5.8512-14.2157-1.0424-2.4333-2.1031-4.8588-3.1813-7.2765-.6729-1.5091-1.1716-3.3676-2.3527-4.5831-2.4876-2.56-6.6879-.7859-9.3764.3902-4.1755,1.8265-8.0791,4.3133-11.8713,6.8199-5.2138,3.4462-10.2442,7.161-15.1818,10.99-9.3012,7.2129-18.5727,14.8778-26.4113,23.6961-1.4615,1.6441-2.8619,3.3536-4.1245,5.1562-.93,1.3278-.241,3.3341,1.0763,4.1046,1.4969.8756,3.1724.2546,4.1046-1.0763h0Z"/>
      <path class="cls-1" d="m257.9543,100.7757c-.0098-17.7914,2.4609-35.5078,7.652-52.5356,1.0291-3.3756,2.1613-6.7199,3.397-10.0255.5767-1.5427,1.1759-3.077,1.7977-4.6022.1408-.3454.2828-.6903.4259-1.0347.0707-.1703.1419-.3404.2131-.5104-.2045.4884-.0218.0511.0173-.0403.3154-.7379.6334-1.4745.9582-2.2083,2.0504-4.6324,4.315-9.1707,6.799-13.586,1.6162-2.8729,3.3518-5.6691,5.1002-8.4623,2.0546-3.2824-3.1345-6.2975-5.1808-3.0283-4.1237,6.588-7.929,13.3161-11.1569,20.3961-6.2073,13.6149-10.6444,27.9931-13.2078,42.7351-1.8889,10.8628-2.8208,21.8778-2.8147,32.9025.0021,3.8606,6.0021,3.8672,6,0h0Z"/>
    </g>
    <g id="Layer_51" data-name="Layer 51">
      <path class="cls-1" d="m294.611,205.5029c-2.3854-3.4971-2.4466-7.7309-3.5823-11.7053-2.5066-9.8849-5.3914-19.7543-8.7564-29.3941-.1141-.315-.5992-1.6267-.7415-1.9521-.0886-.2143-.1878-.4217-.0697-.7386l.0439-.0216c.3145.1057.4117.3209.5195.5292.5941,1.0864,1.6113,3.2769,2.1544,4.4233,3.8843,8.5358,7.4559,17.1745,10.6932,25.9876,1.1906,2.936,1.6456,6.4027,4.0206,8.73.1125.1128.2815.2893.3257.2983l-4.6074,3.8433h0Z"/>
    </g>
  </g>
  <g id="_hair" data-name="+hair">
    <path class="cls-1" d="m166.7089,44.3734c-.8774,2.2204-1.5576,4.3639-2.6692,6.5075-3.4679,6.1976-9.1801,11.017-15.5058,14.1193,2.5189-3.2024,6.3665-7.3172,9.0865-10.3749,3.2774-3.2496,5.4553-7.3718,9.0885-10.2519h0Z"/>
    <path class="cls-1" d="m126.8813,48.8959c2.0021,6.3989.5594,13.8853-3.7114,19.0599.3343-6.5827,1.5667-12.829,3.7114-19.0599h0Z"/>
    <path class="cls-1" d="m112.4078,64.6625c1.4339-.8109,2.7599-1.8422,4.0478-2.8606,2.9624-2.3425,5.6404-5.051,7.9794-8.0146,1.842-2.3338,3.4979-4.7899,4.919-7.4028l-3.7269-1.0094c-.2807,3.1949-.5614,6.3899-.842,9.5848-.1182,1.3452,1.3683,2.2116,2.5317,1.9286,9.5684-2.328,19.1103-5.7064,27.3331-11.2298,4.911-3.2988,9.0628-7.3451,12.9955-11.7304.7804-.8702,1.5599-1.7422,2.3757-2.5795.3736-.3835.7549-.7598,1.1495-1.1218.1778-.1631.3581-.3234.5417-.4799.1678-.143.8729-.6963.2696-.2329l-3.0094-1.7269c-.03.5035-.0777,1.0062-.1277,1.508-.0544.5452-.1162,1.0897-.1843,1.6334-.0148.1184-.0978.7386-.0192.1639-.0202.1474-.0404.2948-.0613.4422-.0558.3934-.115.7864-.1775,1.1788-.5848,3.6714-1.4319,7.3408-2.8129,10.8002-.0504.1264-.1013.2527-.1537.3782.0822-.1971.0005-.0019-.0371.0836-.1218.2772-.2468.5529-.377.8264-.2277.4783-.4692.9501-.7274,1.4126-.2516.4506-.5187.8925-.8042,1.3225-.1396.2102-.2858.4154-.432.621-.0541.0761-.1104.1512-.1671.2254.2353-.3078-.1332.1564-.1477.1739-1.0902,1.3186-.4145,3.3556,1.4142,3.4142,5.9888.1919,11.9766.4231,17.9635.6675,11.9694.4886,23.9379,1.0439,35.8943,1.7894,6.0794.3791,12.1592.7973,18.2221,1.3886l-1.0094-3.7269c-1.9796,1.4676-4.0837,2.7832-6.1826,4.0701-5.4946,3.3688-11.2087,6.3818-17.0539,9.0941-4.4992,2.0878-9.0855,3.9758-13.7432,5.6804-2.1644.7921-1.7336,3.7041.5317,3.9286.04.004.2041.0012.2213.0264.0317.0462-.7019-.1036-.2456-.0318.1283.0202.2568.0389.385.0597.8543.1388,1.7027.3143,2.546.5082,3.2646.7507,6.4637,1.7868,9.5965,2.967,1.1127.4192,2.2177.8587,3.3152,1.3163.1162.0484.5886.2493.0863.0354.1269.0541.254.1078.3808.1621.3016.1291.6026.2595.9031.3911.6248.2738,1.2471.5532,1.867.8379,2.7708,1.2724,5.4931,2.6496,8.1692,4.1106,6.8565,3.7431,13.4103,8.0309,19.6914,12.6708,8.1701,6.0354,15.8814,12.7213,23.2016,19.7738,1.073,1.0338,2.1371,2.0768,3.1943,3.1267l.8825-3.3428c-5.9106,2.0369-12.2067,3.2162-18.3661,4.1643-.6796.1046-1.3599.2045-2.0408.2999-.1905.0267-.3812.0529-.5718.0789.4297-.0587-.2098.0276-.2406.0317-.393.0514-.7861.1013-1.1795.1497-1.6504.203-3.304.3791-4.9601.5284-3.57.3218-7.1513.519-10.7351.5888-8.1115.158-16.2559-.3165-24.2762-1.5562-10.5519-1.6309-20.8922-4.518-30.7327-8.6665-1.3437-.5665-3.004,1.1272-2.4602,2.4602,1.3381,3.2802,2.4637,6.6611,3.4841,10.0514.9331,3.1003,1.7529,6.2382,2.3805,9.4153.1648.834.3157,1.6708.45,2.5103.0618.3864.1183.7734.1745,1.1606.0574.3959-.0241-.2167.0237.1789.0284.2356.0584.471.0852.7069.177,1.5583.2853,3.1268.2774,4.6958-.0041.8201-.04,1.6405-.1211,2.4568-.02.2018-.044.403-.0685.6042.0553-.4542-.0048.012-.0371.2042-.0597.3555-.13.7093-.2127,1.0601-.0848.3597-.1825.7163-.2958,1.068-.0481.1494-.0988.298-.1527.4454-.0733.2004-.2311.5434-.0424.1338-.2827.6137-.5956,1.1977-.994,1.7453l3.6555.4778c-1.2049-3.4681-2.7711-6.8475-4.4529-10.1057-3.1889-6.1778-7.1455-12.2893-12.4174-16.8965-3.039-2.6558-6.5616-4.8345-10.5225-5.7732-1.5752-.3733-3.3038,1.424-2.2586,2.938,3.1086,4.5027,6.2172,9.0055,9.3258,13.5082.445.6446.89,1.2891,1.335,1.9337l1.7269-3.0094c-4.3696.1032-8.1746-.3683-12.3172-1.9661-.1949-.0752-.3887-.1532-.5822-.232.3597.1464-.2205-.097-.3323-.1473-.4198-.1889-.8349-.3884-1.2446-.5985-.7894-.4047-1.5589-.8486-2.3042-1.3297-.3153-.2036-.6264-.4138-.9329-.6304-.1725-.122-.3428-.2468-.5131-.3719-.0844-.062-.1675-.126-.2512-.1889.1273.0957.2069.1661.0346.0259-.6304-.5133-1.2509-1.0334-1.8423-1.5919-1.0751-1.0153-2.0601-2.1168-2.9729-3.2793.3446.4388-.0295-.0435-.0976-.1351-.0931-.1253-.1851-.2514-.2762-.3781-.2044-.2841-.404-.5717-.5987-.8626-.3614-.5397-.7063-1.0905-1.0345-1.651-.5991-1.023-1.143-2.0783-1.6308-3.1587-.1035-.2292-.2014-.4609-.3029-.691.2622.5942-.033-.0858-.1218-.3103-.1617-.4085-.3153-.8203-.4605-1.235-.3264-.9327-.6379-1.8891-.8311-2.8603-.2218-1.1148-1.4636-1.5925-2.4602-1.3969-2.4574.4824-4.2099,3.1049-5.4349,5.0711-.841,1.3498-1.5989,2.7702-2.2361,4.2284l2.2586-.9191c.1798.0474.6231.4012.7273.5716-.1896-.3099.051.3572.0595.1724.0032-.0683-.0518-.1614-.0671-.2322-.0369-.171-.0242-.4585-.0039.097-.0038-.1028-.0234-.2055-.0292-.3084-.0142-.2554-.0241-.5099-.0245-.7657-.0021-1.3223.1288-2.6442.2072-3.9632.1854-3.115.2283-6.3609-1.123-9.2449-.4583-.9781-1.8645-1.2275-2.7364-.7175-1.0022.5862-1.1775,1.7546-.7175,2.7364.1939.4138-.0526-.2234.0765.1823.056.1759.1195.3478.1712.5253.1067.3665.1895.7399.2557,1.1158.0134.0761.0862.6308.0421.2513.0233.2006.0429.4016.0591.6029.0303.376.0482.7529.0582,1.1299.0425,1.601-.0697,3.2006-.1748,4.7971-.145,2.2032-.709,6.1519,2.156,6.907.7721.2035,1.9079-.1164,2.2586-.9191.5664-1.2961,1.2327-2.5581,1.9576-3.7716.2923-.4892.5976-.9709.9222-1.4395.0684-.0988.1376-.197.2078-.2945-.0065.009.3091-.4174.163-.2263-.1495.1957.1403-.1739.1698-.2096.0906-.1097.1829-.2178.2772-.3243.1629-.184.331-.3638.5077-.5346.0934-.0903.1905-.1755.2859-.2635.1797-.1657.2077-.1519-.0017-.0115.1762-.1182.4186-.22.5783-.3555-.0842.0714-.3826.1-.1315.0569.1138-.0196.2297-.0649.3442-.0874l-2.4602-1.3969c.5942,2.9864,1.9227,5.9436,3.3926,8.5841,3.1761,5.7055,8.0508,10.5222,14.0669,13.1598,4.7368,2.0767,9.851,2.9067,15.0101,2.7848,1.4165-.0335,2.6239-1.7102,1.7269-3.0094-3.1086-4.5027-6.2172-9.0055-9.3258-13.5082-.445-.6446-.89-1.2891-1.335-1.9337l-2.2586,2.938c.8011.1898,1.5882.4288,2.3576.722.0947.0361.6258.2513.2337.0857.1574.0665.3135.1363.4689.2074.3902.1785.7746.3695,1.1532.5714.7402.3947,1.4576.8317,2.1519,1.3024.3394.2301.6732.4683,1.0017.7137.0936.0699.4178.3246.1567.1177.1857.1472.3707.2951.5534.446,1.3462,1.111,2.5973,2.3349,3.7688,3.6279.5727.6321,1.1266,1.2813,1.6633,1.9442.1343.1658.2664.3334.3996.5001.057.0714.113.1437.1694.2157-.2106-.2689-.0157-.0209.0222.0291.2755.3631.5486.7279.8162,1.0968,1.9366,2.669,3.6485,5.4985,5.1929,8.4105.6654,1.2546,1.2992,2.5259,1.9031,3.8112.2587.5507.5119,1.104.7595,1.6599.1131.2539.225.5083.3357.7633.0525.1209.1047.2419.1566.3631.0406.0948.2293.5392.0895.2085-.1388-.3284.039.0939.0776.1869.0496.1193.0989.2388.148.3583.0898.2189.1786.4381.2664.6577.1406.3518.2786.7047.4133,1.0589.1165.3065.2324.6135.34.9233.5944,1.7109,2.6337,1.8823,3.6555.4778,1.6891-2.3218,2.2416-5.3268,2.4178-8.1319.2106-3.3522-.1935-6.7369-.7543-10.0373-1.0214-6.0112-2.7669-11.9069-4.8151-17.643-.4438-1.2429-.8974-2.4848-1.396-3.707l-2.4602,2.4602c16.8443,7.1011,35.1335,10.4229,53.3851,10.3939,11.9637-.019,24.0217-1.3898,35.6437-4.2624,2.0803-.5142,4.173-1.0516,6.2009-1.7505,1.3927-.48,2.0031-2.2299.8825-3.3428-7.6672-7.6145-15.7556-14.7937-24.3353-21.3665-6.4936-4.9748-13.2813-9.5831-20.3967-13.6244-5.2092-2.9587-10.5985-5.6014-16.1674-7.8142-3.4047-1.3529-6.8869-2.5419-10.4464-3.4186-1.4829-.3652-3.1925-.8899-4.7392-.8959-.0183,0-.0373-.0042-.0556-.006l.5317,3.9286c12.5289-4.5852,24.8194-10.3896,35.9166-17.8432.6801-.4568,1.3604-.9166,2.0187-1.4046,1.6242-1.2041,1.035-3.5276-1.0094-3.7269-11.523-1.1238-23.1015-1.7244-34.6624-2.3011-10.3914-.5184-20.7872-.9526-31.1847-1.3286-2.0775-.0751-4.1551-.1492-6.2329-.2157l1.4142,3.4142c2.6846-3.247,4.2544-7.2483,5.3486-11.2794.9133-3.3649,1.494-6.8209,1.8696-10.2851.0733-.6764.142-1.3547.1826-2.034.0836-1.402-1.8115-2.6471-3.0094-1.7269-3.5333,2.7139-6.1952,6.3969-9.3345,9.5296-1.0197,1.0175-2.0738,2.0006-3.1656,2.9405-.5888.5068-1.1882,1.0012-1.798,1.4825-.1021.0805-.5605.4319-.2136.1682-.1694.1288-.3385.2578-.5089.3852-.3493.2612-.7017.5183-1.057.7712-3.2691,2.3266-6.7859,4.2909-10.4336,5.9571-5.3308,2.435-11.3291,4.3088-17.1984,5.7368l2.5317,1.9286c.2807-3.1949.5614-6.3899.842-9.5848.1762-2.006-2.8169-2.6827-3.7269-1.0094-2.1802,4.0088-4.8472,7.6108-8.0606,10.8408-1.1855,1.1916-2.4313,2.3238-3.7354,3.3844-.1194.0971-.2393.1936-.3597.2895-.0475.0378-.4845.3817-.2577.2048.2116-.165-.163.1241-.2362.1793-.1371.1034-.2748.206-.4132.3076-.3914.2875-.788.5681-1.1907.8397-.4108.277-.8261.5528-1.2577.7969-2.2407,1.2672-.2271,4.7241,2.0189,3.4539h0Z"/>
  </g>
  <g id="_right_ear" data-name="+right ear">
    <g id="Layer_52" data-name="Layer 52">
      <path class="cls-1" d="m16.6029,200.2031c2.636-2.2686,3.1131-5.9794,4.3463-9.0283,3.5754-9.6761,7.4904-19.2061,11.8941-28.5271.1542-.3096.7712-1.5676.9535-1.8837.1078-.2084.205-.4236.5194-.5292l.0441.0216c.118.317.0189.5243-.0697.7386-.4723,1.1307-1.2461,3.4016-1.662,4.5864-3.9504,11.5818-7.087,23.4691-9.8663,35.3479-.4277,1.1192-.8611,2.0916-1.5519,3.1172,0,0-4.6076-3.8433-4.6076-3.8433h0Z"/>
    </g>
    <g>
      <path class="cls-1" d="m52.8521,47.9007c-.2849-.064-.5658-.1406-.843-.2325-.1235-.041-.2462-.0847-.368-.1306-.0829-.0312-.165-.0639-.2472-.0967.1411.0563.1004.0457-.015-.0077-.6065-.2806-1.1955-.5895-1.7672-.9361-1.3126-.7957-2.2723-1.5318-3.3706-2.4585-1.9033-1.606-3.6769-3.3694-5.3471-5.2153-.3422-.3782-.6827-.759-1.01-1.1503-.6074-.7262-1.9357-.5007-2.3559.3036-.7581,1.4514-.8624,3.2931-1.0225,4.8848-.262,2.6039-.3263,5.2301-.2851,7.8456.0985,6.2434.6994,12.7769,2.8571,18.6787,1.033,2.8255,2.4784,5.7354,4.8668,7.6615l.6619-2.5071c-.2465.0452-.1562-.002.1462-.0167-.2186.0106-.4377.0466-.6565.061-.8055.053-1.6155.0401-2.4206-.0144-.2598-.0176-.5193-.0401-.7784-.0666-.3461-.0354-.4629-.0502-.6113-.0718-.7074-.1029-1.4104-.2362-2.1072-.3963-1.646-.3781-3.2501-.9099-4.8128-1.5481-1.169-.4774-2.4557,1.1906-1.694,2.2035,1.5661,2.0823,3.0125,4.2633,4.406,6.4633,1.3407,2.1166,2.617,4.2753,3.7992,6.4845.6413,1.1985,1.2547,2.4122,1.8301,3.6438.5938,1.2711.9783,2.1629,1.4576,3.431.5037,1.3328.9477,2.6906,1.2868,4.075.1606.6557.2973,1.3175.4014,1.9846.0151.0971.0653.4936.0306.1997.0181.1528.036.3056.0511.4588.0315.3201.0528.6408.0662.9622l.7429-1.2952c-.2426.1239.4001-.1317.1905-.0791-.1451.0364-.2856.0982-.4314.136-.0974.0252-.1957.0469-.2944.0663-.0621.0122-.1256.0195-.1873.0334-.2499.0561.2968-.01.1071-.0143-.316-.0073-.6357.046-.9546.0372-.1786-.0049-.356-.0207-.534-.0338-.0676-.005-.3649-.0507-.0511-.0018-.0904-.0141-.1808-.0286-.2708-.0449-.4808-.0872-.9543-.2128-1.4176-.3675-1.1979-.3997-2.3249-1.0548-3.3947-1.7806-.4889-.3317-1.2275-.232-1.6659.1173-.5038.4013-.6425.9558-.5375,1.5767.2137,1.2645.7764,2.5215,1.3509,3.6526,1.374,2.705,3.4615,4.9813,5.9036,6.7595,1.9433,1.415,4.145,2.4425,6.4183,3.2051l-.8964-2.2035c-1.0478,1.4956-1.9715,3.0928-2.8158,4.7099-1.5594,2.9867-2.9689,6.2576-3.1857,9.6605-.1084,1.7016.1964,3.5431,1.2173,4.9479.5319.7319,1.6555,1.0858,2.3559.3036,1.2343-1.3786,2.6137-2.6449,4.017-3.847,2.7287-2.3374,5.8387-4.543,9.2587-5.9198.6411-.2581,1.0785-.7273,1.1012-1.4464.3363-10.6401.6726-21.2801,1.0088-31.9202.0946-2.9925.1892-5.985.2838-8.9775.061-1.9311-2.939-1.929-3,0-.3363,10.6401-.6726,21.2801-1.0088,31.9202-.0946,2.9925-.1892,5.985-.2838,8.9775l1.1012-1.4464c-3.8108,1.5342-7.2123,3.8396-10.3386,6.4837-1.4918,1.2617-2.9558,2.5969-4.261,4.0546l2.3559.3036c-.1822-.2506-.3306-.5126-.4728-.787-.1557-.3004.0554.2147-.0734-.1944-.0497-.1578-.0989-.3146-.1385-.4754-.0404-.1637-.0654-.3294-.1007-.4939-.0171-.0799-.023-.2867.0069.0599-.0066-.0767-.0184-.1529-.0224-.2298-.0185-.3572-.0337-.711-.0195-1.0688.0065-.1638.0173-.3274.0313-.4907.0081-.0944.0678-.5826.0447-.4251-.0245.1672.0528-.3061.0646-.3709.0391-.2146.0829-.4283.1309-.6411.1735-.7692.3999-1.526.6599-2.2702.1211-.3465.2497-.6903.3845-1.0316.2001-.5066.1571-.4041.38-.9052.3225-.725.6692-1.4391,1.0344-2.1435.5786-1.1159,1.2031-2.2082,1.8666-3.2758.3245-.5222.6548-1.0428,1.0077-1.5465.5879-.8391-.05-1.9195-.8964-2.2035-3.3655-1.129-6.2257-2.8784-8.4886-5.506-.1105-.1283-.2191-.2582-.3259-.3897-.0522-.0643-.1035-.1295-.1553-.1941-.1395-.174.1414.1906.011.0137-.1965-.2665-.391-.5338-.5748-.8093-.3114-.467-.5999-.9493-.8629-1.4452-.1165-.2197-.2281-.4421-.3344-.667-.0495-.1048-.0972-.2104-.1451-.3159-.023-.0507-.0441-.1024-.0673-.1531-.1073-.2346.1003.2689.0417.0988-.1228-.3563-.2739-.7016-.389-1.0614-.1142-.3568-.2244-.7224-.2869-1.0926l-2.2035,1.694c2.1202,1.4385,4.5816,2.5662,7.1824,2.6381,1.0327.0286,2.1515-.1125,3.0842-.589.4483-.2291.7637-.7963.7429-1.2952-.2197-5.2692-2.4973-10.378-4.8679-14.9997-2.1197-4.1327-4.5754-8.0978-7.2218-11.9128-.5381-.7758-1.0813-1.5497-1.6489-2.3044l-1.694,2.2035c2.9053,1.1865,5.97,1.9774,9.1073,2.1899,1.2337.0836,2.5067.0867,3.7283-.1371,1.0548-.1933,1.5131-1.8206.6619-2.5071-.4365-.352-.8417-.739-1.2152-1.1573-.0935-.1047-.1849-.2111-.2745-.319-.0329-.0396-.3105-.3935-.1822-.2244.1278.1685-.1428-.1986-.173-.2411-.0959-.135-.1894-.2716-.2807-.4098-.3478-.5267-.6621-1.0752-.95-1.6368-.1458-.2844-.2846-.5722-.4174-.8629-.0677-.1483-.1326-.2978-.1984-.447-.0903-.2048.0917.2252.0068.0167-.0392-.0962-.0789-.1922-.1175-.2887-1.1028-2.7576-1.7685-5.6838-2.2337-8.6105-.0594-.374-.1133-.7487-.1677-1.1235-.0073-.0504-.0406-.2949-.0042-.0242-.0127-.0941-.0249-.1882-.037-.2824-.0273-.2119-.0535-.4239-.0787-.6361-.0924-.7761-.1715-1.5539-.2385-2.3326-.1308-1.5206-.216-3.0452-.2597-4.5708-.0758-2.6462-.0384-5.3015.1737-7.941.0455-.5659.0996-1.1311.1666-1.6949.0168-.1414.0357-.2825.053-.4238-.0406.3327-.0232.1683.0077-.042.0325-.2209.0675-.4414.1063-.6612.0657-.3714.1395-.7424.2386-1.1065.0372-.1366.0836-.2698.1237-.4054.1185-.4009-.1916.3661.0048-.0099l-2.3559.3036c2.8483,3.405,6.2017,6.671,9.954,9.0565,1.3296.8453,2.7922,1.5951,4.338,1.9427.7897.1776,1.6234-.2405,1.8452-1.0477.2071-.7539-.2538-1.6667-1.0477-1.8452h0Z"/>
      <path class="cls-1" d="m126.6535,74.857c-9.8733-11.3065-20.704-21.7958-31.7352-31.9609-11.1977-10.3186-22.7237-20.3216-34.7863-29.6207-4.2674-3.2898-8.6055-6.5303-13.1862-9.3757C44.2637,2.2336,41.0127.0777,37.7407.0015c-2.3712-.0552-3.5182,1.4564-4.4283,3.4146-2.4038,5.1719-4.7329,10.3787-6.9727,15.6238-4.0723,9.5364-7.8813,19.1862-11.2616,28.9907-5.1774,15.017-9.4287,30.4271-11.7866,46.1539-1.7214,11.4812-2.5014,23.1233-1.6076,34.7159.6699,8.6887,2.2347,17.2946,4.7163,25.6484,1.8946,6.3776,4.3359,12.5568,6.7341,18.756,1.9076,4.9311,3.8345,9.9509,4.6499,15.2003.0231.1489.0432.2982.0666.447.096.6127-.0781-.7387-.0404-.3014.0285.3306.0788.6601.1103.9907.0565.5924.096,1.1864.1166,1.7811.0413,1.1918.0069,2.3863-.1106,3.5732-.0388.3913-.3184,1.3516-.0116.2022-.0768.2877-.0902.6097-.1417.9039-.1101.6291-.2436,1.254-.3994,1.8734-.3244,1.2899-.7582,2.5394-1.243,3.7767-.1891.4825-.2832.1566.0823-.189-.0945.0894-.1574.3621-.2089.4773-.1363.3048-.2773.6075-.4226.9081-.3199.6616-.6619,1.3121-1.0199,1.9538-1.8833,3.3754,3.2972,6.4044,5.1808,3.0283,2.7549-4.9376,4.4229-10.4253,4.3056-16.1121-.1086-5.2658-1.5665-10.3889-3.3286-15.3131-2.0568-5.7477-4.4487-11.3686-6.4573-17.1348-2.5478-7.3141-4.5198-14.8154-5.6837-22.4775-.0835-.5499-.1598-1.1008-.2388-1.6513-.0593-.4127.0803.6341-.017-.1339-.0398-.3138-.0799-.6276-.1179-.9416-.1402-1.1568-.2633-2.3156-.3699-3.476-.2252-2.4529-.3761-4.9125-.4573-7.3743-.1825-5.5327-.0143-11.0745.4367-16.591.1245-1.5231.2706-3.0444.4368-4.5635.0857-.7832.1768-1.5659.273-2.3479.0434-.3528.0879-.7054.1334-1.0579.0229-.1775.0463-.3549.0695-.5323.1161-.8895-.089.6193.0376-.2738.4769-3.3648,1.0215-6.7176,1.6578-10.0561,1.4442-7.5769,3.294-15.0737,5.4317-22.4837,5.4796-18.9941,12.7941-37.4344,20.9985-55.404.5428-1.1889,1.0897-2.3759,1.6406-3.5611.1984-.4268.5593-.9445.6605-1.4102.0788-.3625-.4558.544-.3086.3959.2772-.279-.7798.5419-.4121.3241.3672-.2174-.8367.3108-.4999.2108.6064-.1802-.9688.1095-.2236.0361.7387-.0728-.713-.1974-.1445-.034.2566.0737.52.121.7761.2004.2692.0835.5286.1905.7943.2833.6423.2243-.6734-.3143-.1536-.0677.1799.0853.3639.1626.5442.2473,3.8532,1.8104,7.4018,4.3375,10.8505,6.8078,1.1611.8317,2.3124,1.6772,3.4563,2.5324.5737.429,1.1456.8605,1.7157,1.2942.2753.2094.5501.4193.8246.6298.1738.1332.3473.2667.5209.4002.1669.1287.1395.1073-.0824-.0641.1057.0817.2113.1636.3169.2455,2.6499,2.0585,5.2707,4.154,7.8671,6.2796,5.9009,4.8308,11.6862,9.803,17.3839,14.8716,11.5933,10.3133,22.9071,20.9959,33.5319,32.3107,2.2069,2.3502,4.3787,4.7332,6.4993,7.1616,1.0662,1.221,3.1515,1.0912,4.2426,0,1.2116-1.2116,1.0689-3.0186,0-4.2426h0Z"/>
      <path class="cls-1" d="m61.476,128.262c.0154-.1157.1284-.9498.0259-.196.0341-.251.0682-.502.1025-.753.0697-.5091.1401-1.0181.2105-1.5271.1451-1.0478.2908-2.0954.4332-3.1436.3123-2.2991.6166-4.5993.8777-6.9048.5583-4.9289.9154-9.88.9696-14.8413.1471-13.45-2.1305-26.5919-5.414-39.5924-2.7106-10.7324-5.5463-21.4621-9.0442-31.9693-1.8171-5.4581-3.811-10.9179-6.4442-16.0431-1.5324-2.9827-3.4295-5.7143-5.2056-8.5493-2.0453-3.2647-7.2388-.2566-5.1808,3.0283,1.5261,2.4359,3.1731,4.7851,4.5511,7.3125.9749,1.788,1.8481,3.6297,2.6561,5.4986.0632.1463.1245.2935.1885.4394.2457.5598-.2826-.6871-.0478-.1129.1071.2619.2169.5226.3237.7846.2863.7021.5647,1.4074.8369,2.1151.5898,1.5334,1.1497,3.0781,1.6892,4.6299,3.325,9.5642,5.9907,19.3595,8.5334,29.1553,1.8497,7.126,3.7021,14.2586,4.8999,21.5289.9743,5.9139,1.5201,11.8969,1.6401,17.8895.1135,5.6694-.1767,11.3369-.7617,16.9757-.1297,1.2498-.2728,2.4983-.4258,3.7455-.0796.6489-.1619,1.2975-.2463,1.9458-.0355.2732-.0715.5464-.1077.8195-.0258.1945-.1116.8277-.0375.2821-.3387,2.4944-.6914,4.9869-1.0227,7.4823-.2136,1.609,1.5317,3,3,3,1.7985,0,2.7857-1.3862,3-3h0Z"/>
    </g>
  </g>
  <g id="_Neutral_Mouth" data-name="+Neutral Mouth">
    <g id="Neutral">
      <path class="cls-1" d="m204.7159,258.8041c-2.929,4.6075-6.0464,8.8335-10.2288,12.4136-3.4137,2.9221-7.2659,5.3121-11.2922,7.2928-3.8247,1.8815-7.7016,3.3913-11.8945,4.1502-2.3049.4172-4.6273.7468-6.9598.9635-1.765.164-3.9008.3875-5.5256.1227-1.8886-.3078-2.7012,2.5826-.7975,2.8928,3.865.6298,8.0489-.1245,11.8738-.7168,1.8539-.2871,3.7167-.6021,5.5349-1.0701,2.3055-.5934,4.542-1.5975,6.7147-2.556,7.8649-3.4697,15.1619-8.4738,20.5387-15.2456,1.7019-2.1435,3.1611-4.4273,4.6269-6.7329,1.0388-1.6341-1.5564-3.1407-2.5904-1.5142h0Z"/>
    </g>
  </g>
</svg>