<?xml version="1.0" encoding="UTF-8"?>
<svg id="Layer_1" data-name="Layer 1" xmlns="http://www.w3.org/2000/svg" xmlns:xlink="http://www.w3.org/1999/xlink"
  viewBox="0 0 1500 1500">
  <defs>
    <style>
      .cls-1 {
        fill: url(#linear-gradient);
      }

      .cls-1,
      .cls-2,
      .cls-3,
      .cls-4 {
        stroke-width: 0px;
      }

      .cls-2 {
        fill: url(#linear-gradient-2);
      }

      .cls-3 {
        fill: url(#linear-gradient-3);
      }

      .cls-4 {
        fill: #0b2433;
      }
    </style>
    <linearGradient id="linear-gradient" x1="375.76" y1="750" x2="750" y2="750" gradientTransform="translate(0 0)"
      gradientUnits="userSpaceOnUse">
      <stop offset="0" stop-color="#fdd496" />
      <stop offset="1" stop-color="#f4973e" />
    </linearGradient>
    <linearGradient id="linear-gradient-2" x1="750" x2="1124.24" xlink:href="#linear-gradient" />
    <linearGradient id="linear-gradient-3" x1="750" y1="1017.18" x2="750" y2="144.97" gradientUnits="userSpaceOnUse">
      <stop offset="0" stop-color="#0b2433" stop-opacity="0" />
      <stop offset=".18" stop-color="#0b2433" stop-opacity=".33" />
      <stop offset=".44" stop-color="#0b2433" stop-opacity=".7" />
      <stop offset=".71" stop-color="#0b2433" stop-opacity=".93" />
      <stop offset="1" stop-color="#0b2433" />
    </linearGradient>
  </defs>
  <circle class="cls-4" cx="750" cy="750" r="750" />
  <g>
    <polygon class="cls-1" points="750 157.46 375.76 1342.54 750 1342.54 750 157.46" />
    <polygon class="cls-2" points="750 157.46 1124.24 1342.54 750 1342.54 750 157.46" />
  </g>
  <g>
    <path class="cls-4"
      d="M496.42,1204.82v-114.05h45c8.65,0,16.02,1.64,22.11,4.93,6.09,3.29,10.74,7.83,13.95,13.64,3.21,5.81,4.82,12.5,4.82,20.08s-1.63,14.26-4.9,20.05c-3.27,5.79-7.99,10.3-14.17,13.53-6.18,3.23-13.65,4.84-22.42,4.84h-28.68v-19.32h24.78c4.64,0,8.47-.81,11.5-2.42,3.03-1.61,5.29-3.86,6.79-6.74,1.5-2.88,2.26-6.19,2.26-9.94s-.75-7.1-2.26-9.94c-1.5-2.84-3.78-5.05-6.82-6.63-3.04-1.58-6.91-2.37-11.58-2.37h-16.26v94.34h-24.11Z" />
    <path class="cls-4"
      d="M604.46,1204.82h-25.84l39.37-114.05h31.07l39.32,114.05h-25.84l-28.57-87.99h-.89l-28.62,87.99ZM602.84,1159.99h61.04v18.82h-61.04v-18.82Z" />
    <path class="cls-4"
      d="M702.08,1204.82v-114.05h45c8.61,0,15.97,1.53,22.08,4.59s10.77,7.39,13.98,12.98c3.21,5.59,4.82,12.15,4.82,19.69s-1.63,14.08-4.9,19.52c-3.27,5.44-7.99,9.61-14.17,12.5-6.18,2.9-13.65,4.34-22.42,4.34h-30.13v-19.38h26.23c4.6,0,8.43-.63,11.47-1.89,3.04-1.26,5.32-3.16,6.82-5.68,1.5-2.52,2.26-5.66,2.26-9.41s-.75-6.98-2.26-9.58c-1.5-2.6-3.79-4.58-6.85-5.93-3.06-1.35-6.92-2.03-11.56-2.03h-16.26v94.34h-24.11ZM763.67,1152.92l28.35,51.9h-26.62l-27.73-51.9h26.01Z" />
    <path class="cls-4" d="M800.65,1110.65v-19.88h93.67v19.88h-34.92v94.17h-23.83v-94.17h-34.92Z" />
    <path class="cls-4"
      d="M903.12,1090.77h27.01l26.01,49.12h1.11l26.01-49.12h27.01l-41.6,73.73v40.32h-23.95v-40.32l-41.6-73.73Z" />
    <path class="cls-4"
      d="M624.73,1311.82v-72.73h28.69c5.52,0,10.22,1.05,14.1,3.14,3.88,2.1,6.85,5,8.9,8.7,2.05,3.71,3.07,7.97,3.07,12.8s-1.04,9.09-3.12,12.78c-2.08,3.69-5.1,6.57-9.04,8.63s-8.71,3.09-14.29,3.09h-18.29v-12.32h15.8c2.96,0,5.4-.51,7.33-1.54,1.93-1.03,3.37-2.46,4.33-4.3s1.44-3.95,1.44-6.34-.48-4.53-1.44-6.34c-.96-1.81-2.41-3.22-4.35-4.23-1.94-1.01-4.4-1.51-7.39-1.51h-10.37v60.16h-15.38Z" />
    <path class="cls-4" d="M689.51,1311.82v-72.73h15.38v60.05h31.18v12.68h-46.56Z" />
    <path class="cls-4"
      d="M760.6,1311.82h-16.48l25.11-72.73h19.81l25.07,72.73h-16.48l-18.22-56.11h-.57l-18.25,56.11ZM759.57,1283.24h38.92v12h-38.92v-12Z" />
    <path class="cls-4"
      d="M811.2,1239.1h17.22l16.58,31.32h.71l16.58-31.32h17.22l-26.53,47.02v25.71h-15.27v-25.71l-26.53-47.02Z" />
  </g>
  <rect class="cls-3" x="441.04" y="144.97" width="617.92" height="872.2" />
</svg>