<?xml version="1.0" encoding="utf-8"?>
<!-- Generator: Adobe Illustrator 26.2.1, SVG Export Plug-In . SVG Version: 6.00 Build 0)  -->
<svg version="1.1" id="Layer_2" xmlns="http://www.w3.org/2000/svg" xmlns:xlink="http://www.w3.org/1999/xlink" x="0px"
    y="0px" viewBox="0 0 595.3 330.9" style="enable-background:new 0 0 595.3 330.9;" xml:space="preserve">
    <style type="text/css">
        .st0 {
            fill: #fff;
        }
    </style>
    <path class="st0" d="M347.1,303.3h8.3V170.9h-8.3V303.3z M355.4,154.4v-24.8h-8.3v24.8H355.4z M388.5,303.3h-8.3l0-131.9h8.3l0,11.1
	c6.3-7.1,15.3-11.2,24.8-11.2c12,0,23.1,6.5,29,17.1c5.8-10.5,16.9-17.1,29-17.1c18.3,0,33.1,14.8,33.1,33.1c0,33,0,80.6,0,98.9H496
	c0-13.7,0-65.9,0-98.9c0-13.7-11.1-24.8-24.8-24.8c-13.7,0-24.8,11.1-24.8,24.8l0,98.9h-8.3l0-98.9c0-13.7-11.1-24.8-24.8-24.8
	c-13.7,0-24.8,11.1-24.8,24.8L388.5,303.3z M595.3,270.2c0,18.3-14.8,33.1-33.1,33.1c-18.3,0-33.1-14.8-33.1-33.1V204
	c0-18.3,14.8-33.1,33.1-33.1c18.3,0,33.1,14.8,33.1,33.1L595.3,270.2z M587,204c0-13.7-11.1-24.8-24.8-24.8
	c-13.7,0-24.8,11.1-24.8,24.8v66.2c0,13.7,11.1,24.8,24.8,24.8s24.8-11.1,24.8-24.8V204z M44.3,278.5c-59.2-63.6-58.9-163.3,0-226.1
	L44.3,278.5z M219.3,261.9V64.5l37.1-37C189-17.2,99.3-7,44.3,52.4L219.3,261.9z M256.4,303.6c98.9-65.7,98.7-210.8,0-276.1
	L256.4,303.6z M79,146.2l0,160.6c43.9,26.8,97.7,31.6,145.7,13.1L79,146.2z" />
</svg>